# xmcd
#
# Track frame offsets: 
#        150
#        11581
#        29574
#        48487
#        68018
#        83233
#        115384
#
# Disc length: 2315 seconds
#
# Revision: 3
# Processed by: cddbd v1.5.2PL0 Copyright (c) Steve Scherf et al.
# Submitted via: ExactAudioCopyFreeDBPlugin 1.0
#
DISCID=57090907
DTITLE=Shuggie Otis - Freedom Flight
DYEAR=1971
DGENRE=R&B
TTITLE0=Ice Cold Daydream
TTITLE1=Strawberry Letter 23
TTITLE2=SweetThang
TTITLE3=Me and My Woman
TTITLE4=Someone's Always Singing
TTITLE5=Purple
TTITLE6=Freedom Flight
EXTD=YEAR: 1971
EXTT0=
EXTT1=
EXTT2=
EXTT3=
EXTT4=
EXTT5=
EXTT6=
PLAYORDER=
